<svg xmlns="http://www.w3.org/2000/svg" xmlns:xlink="http://www.w3.org/1999/xlink" id="Layer_1" x="0" y="0" version="1.1" viewBox="0 0 475 475" xml:space="preserve" style="enable-background:new 0 0 475 475"><g><g><path d="M0,105v4.9V370h475V105H0z M242.6,115.1h222.3v45H242.6V115.1z M412.4,169.8v134.9H385V169.8H412.4z M374.9,169.8v134.9 H242.6V169.8H374.9z M232.4,359.9H10.1v-45h222.3V359.9z M10.1,304.7V169.8h42.4v134.9H10.1z M62.6,304.7V169.8H90v134.9H62.6z M232.4,304.7H100.1V169.8h132.3V304.7z M232.4,160.1H10.1v-45h222.3V160.1z M464.9,359.9H242.6v-45h222.3V359.9z M464.9,304.7 h-42.4V169.8h42.4V304.7z"/></g></g></svg>